<svg id="visual" viewBox="0 0 960 540" width="960" height="540" xmlns="http://www.w3.org/2000/svg" xmlns:xlink="http://www.w3.org/1999/xlink" version="1.1"><rect x="0" y="0" width="960" height="540" fill="#222"></rect><path d="M0 384L137 400L274 348L411 397L549 334L686 337L823 342L960 378L960 541L823 541L686 541L549 541L411 541L274 541L137 541L0 541Z" fill="#383838"></path><path d="M0 354L137 394L274 416L411 430L549 391L686 391L823 406L960 409L960 541L823 541L686 541L549 541L411 541L274 541L137 541L0 541Z" fill="#3f3f3f"></path><path d="M0 413L137 419L274 443L411 404L549 447L686 425L823 423L960 430L960 541L823 541L686 541L549 541L411 541L274 541L137 541L0 541Z" fill="#464646"></path><path d="M0 485L137 439L274 444L411 470L549 439L686 456L823 484L960 488L960 541L823 541L686 541L549 541L411 541L274 541L137 541L0 541Z" fill="#4d4d4d"></path><path d="M0 485L137 476L274 516L411 486L549 484L686 513L823 486L960 506L960 541L823 541L686 541L549 541L411 541L274 541L137 541L0 541Z" fill="#555555"></path></svg>