<svg width="150" height="150" viewBox="0 0 150 150" fill="none" xmlns="http://www.w3.org/2000/svg">
<rect width="150" height="150" fill="white"/>
<path d="M50.744 61.016C50.616 62.52 50.52 63.976 50.456 65.384C50.424 66.792 50.408 67.864 50.408 68.6C50.408 69.24 50.424 69.864 50.456 70.472C50.488 71.08 50.52 71.576 50.552 71.96H49.448C49.096 69.464 48.52 67.496 47.72 66.056C46.952 64.616 45.992 63.608 44.84 63.032C43.72 62.424 42.472 62.12 41.096 62.12H39.8C38.936 62.12 38.264 62.2 37.784 62.36C37.336 62.488 37.032 62.776 36.872 63.224C36.744 63.672 36.68 64.376 36.68 65.336V90.68C36.68 91.608 36.744 92.312 36.872 92.792C37.032 93.24 37.336 93.544 37.784 93.704C38.264 93.832 38.936 93.896 39.8 93.896H41.768C43.016 93.896 44.2 93.576 45.32 92.936C46.472 92.264 47.496 91.144 48.392 89.576C49.288 87.976 49.96 85.816 50.408 83.096H51.512C51.416 84.184 51.368 85.592 51.368 87.32C51.368 88.088 51.384 89.176 51.416 90.584C51.448 91.992 51.544 93.464 51.704 95C50.072 94.936 48.232 94.904 46.184 94.904C44.136 94.872 42.312 94.856 40.712 94.856C39.88 94.856 38.824 94.856 37.544 94.856C36.264 94.856 34.872 94.872 33.368 94.904C31.864 94.904 30.344 94.92 28.808 94.952C27.272 94.952 25.832 94.968 24.488 95V94.04C25.48 93.976 26.216 93.848 26.696 93.656C27.208 93.464 27.544 93.08 27.704 92.504C27.896 91.928 27.992 91.064 27.992 89.912V66.104C27.992 64.92 27.896 64.056 27.704 63.512C27.544 62.936 27.208 62.552 26.696 62.36C26.216 62.136 25.48 62.008 24.488 61.976V61.016C25.864 61.048 27.304 61.08 28.808 61.112C30.344 61.112 31.848 61.128 33.32 61.16C34.824 61.16 36.216 61.16 37.496 61.16C38.808 61.16 39.88 61.16 40.712 61.16C42.184 61.16 43.848 61.16 45.704 61.16C47.592 61.128 49.272 61.08 50.744 61.016ZM43.496 77.432C43.496 77.432 43.496 77.592 43.496 77.912C43.496 78.232 43.496 78.392 43.496 78.392H35.24C35.24 78.392 35.24 78.232 35.24 77.912C35.24 77.592 35.24 77.432 35.24 77.432H43.496ZM44.888 71.096C44.76 72.92 44.696 74.312 44.696 75.272C44.728 76.232 44.744 77.112 44.744 77.912C44.744 78.712 44.76 79.592 44.792 80.552C44.824 81.512 44.904 82.904 45.032 84.728H43.928C43.768 83.576 43.432 82.52 42.92 81.56C42.408 80.6 41.72 79.832 40.856 79.256C39.992 78.68 38.936 78.392 37.688 78.392V77.432C38.616 77.432 39.432 77.24 40.136 76.856C40.84 76.44 41.432 75.912 41.912 75.272C42.424 74.632 42.84 73.944 43.16 73.208C43.48 72.472 43.688 71.768 43.784 71.096H44.888ZM70.6929 61.016C77.2209 61.016 82.0529 62.456 85.1889 65.336C88.3569 68.184 89.9409 72.28 89.9409 77.624C89.9409 81.112 89.1569 84.168 87.5889 86.792C86.0529 89.384 83.8129 91.4 80.8689 92.84C77.9249 94.28 74.3889 95 70.2609 95C69.7489 95 69.0769 94.984 68.2449 94.952C67.4129 94.92 66.5329 94.904 65.6049 94.904C64.7089 94.872 63.8929 94.856 63.1569 94.856C61.6529 94.856 60.1809 94.872 58.7409 94.904C57.3009 94.904 56.1489 94.936 55.2849 95V94.04C56.2769 93.976 57.0129 93.848 57.4929 93.656C58.0049 93.464 58.3409 93.08 58.5009 92.504C58.6929 91.928 58.7889 91.064 58.7889 89.912V66.104C58.7889 64.92 58.6929 64.056 58.5009 63.512C58.3409 62.936 58.0049 62.552 57.4929 62.36C57.0129 62.136 56.2769 62.008 55.2849 61.976V61.016C56.1489 61.048 57.3009 61.096 58.7409 61.16C60.1809 61.192 61.6209 61.192 63.0609 61.16C64.2129 61.128 65.5249 61.096 66.9969 61.064C68.4689 61.032 69.7009 61.016 70.6929 61.016ZM71.0289 61.88C69.5569 61.88 68.5969 62.152 68.1489 62.696C67.7009 63.24 67.4769 64.344 67.4769 66.008V90.008C67.4769 91.672 67.7009 92.776 68.1489 93.32C68.6289 93.864 69.6049 94.136 71.0769 94.136C73.5089 94.136 75.4449 93.512 76.8849 92.264C78.3249 90.984 79.3489 89.128 79.9569 86.696C80.5969 84.264 80.9169 81.304 80.9169 77.816C80.9169 74.232 80.5809 71.272 79.9089 68.936C79.2369 66.568 78.1649 64.808 76.6929 63.656C75.2529 62.472 73.3649 61.88 71.0289 61.88ZM111.299 60.344C114.819 60.344 117.891 61.032 120.515 62.408C123.139 63.784 125.171 65.768 126.611 68.36C128.083 70.92 128.819 74.04 128.819 77.72C128.819 81.304 128.067 84.44 126.563 87.128C125.091 89.816 123.027 91.912 120.371 93.416C117.715 94.92 114.675 95.672 111.251 95.672C107.763 95.672 104.691 94.984 102.035 93.608C99.4114 92.232 97.3634 90.248 95.8914 87.656C94.4514 85.064 93.7314 81.944 93.7314 78.296C93.7314 74.712 94.4834 71.576 95.9874 68.888C97.5234 66.2 99.6034 64.104 102.227 62.6C104.851 61.096 107.875 60.344 111.299 60.344ZM111.107 61.208C109.411 61.208 107.939 61.928 106.691 63.368C105.443 64.808 104.467 66.792 103.763 69.32C103.091 71.848 102.755 74.776 102.755 78.104C102.755 81.496 103.139 84.456 103.907 86.984C104.707 89.48 105.763 91.416 107.075 92.792C108.387 94.136 109.843 94.808 111.443 94.808C113.139 94.808 114.611 94.088 115.859 92.648C117.139 91.208 118.115 89.224 118.787 86.696C119.459 84.136 119.795 81.208 119.795 77.912C119.795 74.488 119.411 71.528 118.643 69.032C117.875 66.536 116.819 64.616 115.475 63.272C114.163 61.896 112.707 61.208 111.107 61.208Z" fill="black"/>
<path d="M90.872 114.344V114.984C90.4027 115.197 89.9013 115.613 89.368 116.232C88.8347 116.851 88.376 117.811 87.992 119.112L82.456 137.032C82.2427 137.011 82.0187 137 81.784 137C81.5493 136.979 81.304 136.968 81.048 136.968C80.8347 136.968 80.6 136.979 80.344 137C80.1093 137 79.8853 137.011 79.672 137.032L72.952 116.584C72.76 115.987 72.5147 115.581 72.216 115.368C71.9387 115.133 71.6187 115.005 71.256 114.984V114.344C71.9173 114.365 72.696 114.387 73.592 114.408C74.488 114.429 75.3947 114.44 76.312 114.44C77.272 114.44 78.1787 114.429 79.032 114.408C79.8853 114.387 80.5787 114.365 81.112 114.344V114.984C80.4507 115.005 79.9387 115.08 79.576 115.208C79.2133 115.336 79 115.592 78.936 115.976C78.8933 116.339 79 116.904 79.256 117.672L83.704 131.272L82.872 132.904L86.296 121.992C86.8507 120.243 87.1173 118.867 87.096 117.864C87.0747 116.84 86.8187 116.115 86.328 115.688C85.8587 115.24 85.1867 115.005 84.312 114.984V114.344C85.1013 114.365 85.8053 114.387 86.424 114.408C87.064 114.429 87.7253 114.44 88.408 114.44C88.856 114.44 89.2933 114.429 89.72 114.408C90.168 114.387 90.552 114.365 90.872 114.344ZM67.896 114.344V114.984C67.4907 115.048 67.2133 115.219 67.064 115.496C66.9147 115.773 66.8613 116.115 66.904 116.52C66.968 116.904 67.064 117.288 67.192 117.672L72.024 131.592L71.16 132.84L75.128 121.672L75.576 122.568L70.616 137.032C70.4027 137.011 70.168 137 69.912 137C69.6773 136.979 69.4427 136.968 69.208 136.968C68.9733 136.968 68.7387 136.979 68.504 137C68.2693 137 68.0453 137.011 67.832 137.032L60.536 117.032C60.2587 116.264 59.9387 115.741 59.576 115.464C59.2133 115.165 58.8827 115.005 58.584 114.984V114.344C59.2667 114.365 60.088 114.387 61.048 114.408C62.008 114.429 62.9253 114.44 63.8 114.44C64.6747 114.44 65.464 114.429 66.168 114.408C66.872 114.387 67.448 114.365 67.896 114.344Z" fill="black"/>
<path d="M54.372 104.784V105.036C54.196 105.036 54.048 105.048 53.928 105.072C53.808 105.088 53.724 105.136 53.676 105.216C53.636 105.296 53.64 105.424 53.688 105.6L54.792 109.164L54.612 109.38L55.896 104.784L56.148 104.904L54.432 111.012C54.272 110.996 54.108 110.988 53.94 110.988C53.78 110.988 53.62 110.996 53.46 111.012L51.588 105.708C51.476 105.388 51.352 105.196 51.216 105.132C51.088 105.068 50.98 105.036 50.892 105.036V104.784C51.18 104.808 51.48 104.828 51.792 104.844C52.104 104.852 52.444 104.856 52.812 104.856C53.06 104.856 53.32 104.848 53.592 104.832C53.872 104.816 54.132 104.8 54.372 104.784ZM60.528 104.784V105.036C60.376 105.084 60.228 105.184 60.084 105.336C59.948 105.48 59.816 105.744 59.688 106.128L58.14 111.012C57.98 110.996 57.82 110.988 57.66 110.988C57.5 110.988 57.336 110.996 57.168 111.012L55.572 106.488L55.908 104.784C56.084 104.792 56.264 104.796 56.448 104.796C56.632 104.796 56.812 104.792 56.988 104.784L58.548 109.596L58.404 109.392L59.088 107.208C59.24 106.712 59.296 106.308 59.256 105.996C59.224 105.684 59.12 105.452 58.944 105.3C58.776 105.14 58.564 105.052 58.308 105.036V104.784C58.42 104.792 58.56 104.8 58.728 104.808C58.896 104.816 59.06 104.824 59.22 104.832C59.38 104.832 59.508 104.832 59.604 104.832C59.756 104.832 59.924 104.828 60.108 104.82C60.292 104.812 60.432 104.8 60.528 104.784ZM62.2596 111.084C61.8916 111.084 61.5876 111.016 61.3476 110.88C61.1076 110.736 60.9316 110.548 60.8196 110.316C60.7076 110.084 60.6516 109.836 60.6516 109.572C60.6516 109.236 60.7276 108.96 60.8796 108.744C61.0396 108.528 61.2436 108.356 61.4916 108.228C61.7396 108.092 61.9996 107.98 62.2716 107.892C62.5436 107.804 62.8036 107.72 63.0516 107.64C63.2996 107.552 63.4996 107.452 63.6516 107.34C63.8036 107.22 63.8796 107.068 63.8796 106.884V105.888C63.8796 105.712 63.8516 105.548 63.7956 105.396C63.7476 105.236 63.6556 105.108 63.5196 105.012C63.3916 104.908 63.2116 104.856 62.9796 104.856C62.8356 104.856 62.6956 104.876 62.5596 104.916C62.4236 104.956 62.3036 105.02 62.1996 105.108C62.4556 105.196 62.6436 105.328 62.7636 105.504C62.8916 105.68 62.9556 105.876 62.9556 106.092C62.9556 106.388 62.8516 106.624 62.6436 106.8C62.4436 106.968 62.2036 107.052 61.9236 107.052C61.6196 107.052 61.3836 106.956 61.2156 106.764C61.0556 106.572 60.9756 106.34 60.9756 106.068C60.9756 105.828 61.0356 105.628 61.1556 105.468C61.2756 105.3 61.4516 105.148 61.6836 105.012C61.9156 104.876 62.1956 104.776 62.5236 104.712C62.8516 104.648 63.1996 104.616 63.5676 104.616C63.9436 104.616 64.2876 104.656 64.5996 104.736C64.9196 104.808 65.1916 104.956 65.4156 105.18C65.5916 105.364 65.7036 105.588 65.7516 105.852C65.7996 106.116 65.8236 106.452 65.8236 106.86V110.1C65.8236 110.3 65.8396 110.44 65.8716 110.52C65.9116 110.592 65.9716 110.628 66.0516 110.628C66.1236 110.628 66.1916 110.608 66.2556 110.568C66.3196 110.528 66.3836 110.484 66.4476 110.436L66.5796 110.64C66.4036 110.784 66.1956 110.896 65.9556 110.976C65.7156 111.048 65.4556 111.084 65.1756 111.084C64.8556 111.084 64.6036 111.044 64.4196 110.964C64.2436 110.876 64.1156 110.76 64.0356 110.616C63.9636 110.472 63.9236 110.312 63.9156 110.136C63.7396 110.424 63.5196 110.656 63.2556 110.832C62.9916 111 62.6596 111.084 62.2596 111.084ZM63.2556 110.22C63.3836 110.22 63.4956 110.196 63.5916 110.148C63.6956 110.092 63.7916 110 63.8796 109.872V107.376C63.8156 107.488 63.7276 107.596 63.6156 107.7C63.5116 107.796 63.3996 107.896 63.2796 108C63.1596 108.096 63.0436 108.204 62.9316 108.324C62.8276 108.444 62.7396 108.588 62.6676 108.756C62.6036 108.916 62.5716 109.112 62.5716 109.344C62.5716 109.656 62.6356 109.88 62.7636 110.016C62.8916 110.152 63.0556 110.22 63.2556 110.22ZM71.1685 104.616C71.4405 104.616 71.6565 104.676 71.8165 104.796C71.9765 104.908 72.0925 105.056 72.1645 105.24C72.2365 105.416 72.2725 105.592 72.2725 105.768C72.2725 106.096 72.1765 106.36 71.9845 106.56C71.8005 106.76 71.5565 106.86 71.2525 106.86C70.9325 106.86 70.6885 106.788 70.5205 106.644C70.3525 106.492 70.2685 106.292 70.2685 106.044C70.2685 105.796 70.3205 105.592 70.4245 105.432C70.5365 105.272 70.6725 105.136 70.8325 105.024C70.7125 105.008 70.5965 105.024 70.4845 105.072C70.3565 105.104 70.2365 105.164 70.1245 105.252C70.0125 105.34 69.9165 105.444 69.8365 105.564C69.7565 105.684 69.6925 105.816 69.6445 105.96C69.6045 106.096 69.5845 106.236 69.5845 106.38V109.764C69.5845 110.148 69.6685 110.408 69.8365 110.544C70.0125 110.68 70.2885 110.748 70.6645 110.748V111C70.4805 110.992 70.2085 110.984 69.8485 110.976C69.4885 110.96 69.1165 110.952 68.7325 110.952C68.3885 110.952 68.0405 110.96 67.6885 110.976C67.3445 110.984 67.0885 110.992 66.9205 111V110.748C67.1845 110.748 67.3685 110.688 67.4725 110.568C67.5845 110.448 67.6405 110.22 67.6405 109.884V106.092C67.6405 105.732 67.5885 105.468 67.4845 105.3C67.3805 105.124 67.1925 105.036 66.9205 105.036V104.784C67.1765 104.808 67.4245 104.82 67.6645 104.82C68.0245 104.82 68.3645 104.808 68.6845 104.784C69.0125 104.752 69.3125 104.708 69.5845 104.652V105.636C69.6805 105.428 69.8045 105.248 69.9565 105.096C70.1165 104.944 70.2965 104.828 70.4965 104.748C70.7045 104.66 70.9285 104.616 71.1685 104.616ZM78.4995 101.616V109.68C78.4995 110.04 78.5515 110.308 78.6555 110.484C78.7675 110.652 78.9555 110.736 79.2195 110.736V110.988C78.9715 110.964 78.7235 110.952 78.4755 110.952C78.1155 110.952 77.7755 110.964 77.4555 110.988C77.1355 111.012 76.8355 111.056 76.5555 111.12V103.056C76.5555 102.696 76.5035 102.432 76.3995 102.264C76.3035 102.088 76.1155 102 75.8355 102V101.748C76.0915 101.772 76.3395 101.784 76.5795 101.784C76.9475 101.784 77.2915 101.772 77.6115 101.748C77.9315 101.716 78.2275 101.672 78.4995 101.616ZM75.2715 104.616C75.6235 104.616 75.9275 104.668 76.1835 104.772C76.4395 104.868 76.6515 105.032 76.8195 105.264L76.6755 105.384C76.5715 105.248 76.4435 105.148 76.2915 105.084C76.1475 105.02 75.9955 104.988 75.8355 104.988C75.4515 104.988 75.1515 105.228 74.9355 105.708C74.7275 106.18 74.6235 106.908 74.6235 107.892C74.6235 108.58 74.6635 109.124 74.7435 109.524C74.8315 109.916 74.9475 110.192 75.0915 110.352C75.2435 110.512 75.4115 110.592 75.5955 110.592C75.8435 110.592 76.0635 110.5 76.2555 110.316C76.4555 110.124 76.5595 109.872 76.5675 109.56L76.6035 110.064C76.4595 110.432 76.2595 110.708 76.0035 110.892C75.7555 111.076 75.4355 111.168 75.0435 111.168C74.5795 111.168 74.1595 111.052 73.7835 110.82C73.4155 110.588 73.1235 110.232 72.9075 109.752C72.6995 109.264 72.5955 108.632 72.5955 107.856C72.5955 107.128 72.7075 106.528 72.9315 106.056C73.1635 105.576 73.4795 105.216 73.8795 104.976C74.2875 104.736 74.7515 104.616 75.2715 104.616ZM81.326 111.084C80.958 111.084 80.654 111.016 80.414 110.88C80.174 110.736 79.998 110.548 79.886 110.316C79.774 110.084 79.718 109.836 79.718 109.572C79.718 109.236 79.794 108.96 79.946 108.744C80.106 108.528 80.31 108.356 80.558 108.228C80.806 108.092 81.066 107.98 81.338 107.892C81.61 107.804 81.87 107.72 82.118 107.64C82.366 107.552 82.566 107.452 82.718 107.34C82.87 107.22 82.946 107.068 82.946 106.884V105.888C82.946 105.712 82.918 105.548 82.862 105.396C82.814 105.236 82.722 105.108 82.586 105.012C82.458 104.908 82.278 104.856 82.046 104.856C81.902 104.856 81.762 104.876 81.626 104.916C81.49 104.956 81.37 105.02 81.266 105.108C81.522 105.196 81.71 105.328 81.83 105.504C81.958 105.68 82.022 105.876 82.022 106.092C82.022 106.388 81.918 106.624 81.71 106.8C81.51 106.968 81.27 107.052 80.99 107.052C80.686 107.052 80.45 106.956 80.282 106.764C80.122 106.572 80.042 106.34 80.042 106.068C80.042 105.828 80.102 105.628 80.222 105.468C80.342 105.3 80.518 105.148 80.75 105.012C80.982 104.876 81.262 104.776 81.59 104.712C81.918 104.648 82.266 104.616 82.634 104.616C83.01 104.616 83.354 104.656 83.666 104.736C83.986 104.808 84.258 104.956 84.482 105.18C84.658 105.364 84.77 105.588 84.818 105.852C84.866 106.116 84.89 106.452 84.89 106.86V110.1C84.89 110.3 84.906 110.44 84.938 110.52C84.978 110.592 85.038 110.628 85.118 110.628C85.19 110.628 85.258 110.608 85.322 110.568C85.386 110.528 85.45 110.484 85.514 110.436L85.646 110.64C85.47 110.784 85.262 110.896 85.022 110.976C84.782 111.048 84.522 111.084 84.242 111.084C83.922 111.084 83.67 111.044 83.486 110.964C83.31 110.876 83.182 110.76 83.102 110.616C83.03 110.472 82.99 110.312 82.982 110.136C82.806 110.424 82.586 110.656 82.322 110.832C82.058 111 81.726 111.084 81.326 111.084ZM82.322 110.22C82.45 110.22 82.562 110.196 82.658 110.148C82.762 110.092 82.858 110 82.946 109.872V107.376C82.882 107.488 82.794 107.596 82.682 107.7C82.578 107.796 82.466 107.896 82.346 108C82.226 108.096 82.11 108.204 81.998 108.324C81.894 108.444 81.806 108.588 81.734 108.756C81.67 108.916 81.638 109.112 81.638 109.344C81.638 109.656 81.702 109.88 81.83 110.016C81.958 110.152 82.122 110.22 82.322 110.22ZM91.8218 104.784V105.036C91.6698 105.084 91.5218 105.184 91.3778 105.336C91.2418 105.488 91.1098 105.752 90.9818 106.128L89.3858 110.736L88.8578 111.852L86.1098 105.708C85.9738 105.404 85.8418 105.216 85.7138 105.144C85.5858 105.072 85.4777 105.036 85.3897 105.036V104.784C85.6858 104.808 85.9898 104.828 86.3018 104.844C86.6138 104.852 86.9098 104.856 87.1898 104.856C87.5418 104.856 87.8538 104.848 88.1258 104.832C88.3978 104.816 88.6538 104.8 88.8938 104.784V105.036C88.7418 105.036 88.5978 105.044 88.4618 105.06C88.3258 105.076 88.2298 105.124 88.1738 105.204C88.1258 105.276 88.1418 105.408 88.2218 105.6L89.7458 109.248L89.6258 109.332L90.3578 107.208C90.5258 106.72 90.5978 106.32 90.5738 106.008C90.5498 105.696 90.4578 105.46 90.2978 105.3C90.1378 105.14 89.9338 105.052 89.6858 105.036V104.784C89.8058 104.792 89.9378 104.8 90.0818 104.808C90.2338 104.816 90.3818 104.824 90.5258 104.832C90.6698 104.832 90.7938 104.832 90.8978 104.832C91.0498 104.832 91.2178 104.828 91.4018 104.82C91.5858 104.812 91.7258 104.8 91.8218 104.784ZM89.3858 110.736L88.9058 112.104C88.8338 112.304 88.7538 112.476 88.6658 112.62C88.5858 112.764 88.4898 112.88 88.3778 112.968C88.2658 113.056 88.1218 113.124 87.9458 113.172C87.7778 113.228 87.5618 113.256 87.2978 113.256C87.0898 113.256 86.8698 113.22 86.6378 113.148C86.4138 113.084 86.2218 112.976 86.0618 112.824C85.9098 112.672 85.8338 112.468 85.8338 112.212C85.8338 111.948 85.9298 111.736 86.1218 111.576C86.3138 111.424 86.5738 111.348 86.9018 111.348C87.1978 111.348 87.4338 111.416 87.6098 111.552C87.7938 111.688 87.8858 111.892 87.8858 112.164C87.8858 112.332 87.8298 112.496 87.7178 112.656C87.6058 112.816 87.4298 112.936 87.1898 113.016C87.2458 113.024 87.3058 113.028 87.3698 113.028C87.4418 113.036 87.4978 113.04 87.5378 113.04C87.7858 113.04 88.0058 112.96 88.1978 112.8C88.3898 112.648 88.5418 112.408 88.6538 112.08L89.0738 110.808L89.3858 110.736ZM93.6424 111.084C93.2744 111.084 92.9704 111.016 92.7304 110.88C92.4904 110.736 92.3144 110.548 92.2024 110.316C92.0904 110.084 92.0344 109.836 92.0344 109.572C92.0344 109.236 92.1104 108.96 92.2624 108.744C92.4224 108.528 92.6264 108.356 92.8744 108.228C93.1224 108.092 93.3824 107.98 93.6544 107.892C93.9264 107.804 94.1864 107.72 94.4344 107.64C94.6824 107.552 94.8824 107.452 95.0344 107.34C95.1864 107.22 95.2624 107.068 95.2624 106.884V105.888C95.2624 105.712 95.2344 105.548 95.1784 105.396C95.1304 105.236 95.0384 105.108 94.9024 105.012C94.7744 104.908 94.5944 104.856 94.3624 104.856C94.2184 104.856 94.0784 104.876 93.9424 104.916C93.8064 104.956 93.6864 105.02 93.5824 105.108C93.8384 105.196 94.0264 105.328 94.1464 105.504C94.2744 105.68 94.3384 105.876 94.3384 106.092C94.3384 106.388 94.2344 106.624 94.0264 106.8C93.8264 106.968 93.5864 107.052 93.3064 107.052C93.0024 107.052 92.7664 106.956 92.5984 106.764C92.4384 106.572 92.3584 106.34 92.3584 106.068C92.3584 105.828 92.4184 105.628 92.5384 105.468C92.6584 105.3 92.8344 105.148 93.0664 105.012C93.2984 104.876 93.5784 104.776 93.9064 104.712C94.2344 104.648 94.5824 104.616 94.9504 104.616C95.3264 104.616 95.6704 104.656 95.9824 104.736C96.3024 104.808 96.5744 104.956 96.7984 105.18C96.9744 105.364 97.0864 105.588 97.1344 105.852C97.1824 106.116 97.2064 106.452 97.2064 106.86V110.1C97.2064 110.3 97.2224 110.44 97.2544 110.52C97.2944 110.592 97.3544 110.628 97.4344 110.628C97.5064 110.628 97.5744 110.608 97.6384 110.568C97.7024 110.528 97.7664 110.484 97.8304 110.436L97.9624 110.64C97.7864 110.784 97.5784 110.896 97.3384 110.976C97.0984 111.048 96.8384 111.084 96.5584 111.084C96.2384 111.084 95.9864 111.044 95.8024 110.964C95.6264 110.876 95.4984 110.76 95.4184 110.616C95.3464 110.472 95.3064 110.312 95.2984 110.136C95.1224 110.424 94.9024 110.656 94.6384 110.832C94.3744 111 94.0424 111.084 93.6424 111.084ZM94.6384 110.22C94.7664 110.22 94.8784 110.196 94.9744 110.148C95.0784 110.092 95.1744 110 95.2624 109.872V107.376C95.1984 107.488 95.1104 107.596 94.9984 107.7C94.8944 107.796 94.7824 107.896 94.6624 108C94.5424 108.096 94.4264 108.204 94.3144 108.324C94.2104 108.444 94.1224 108.588 94.0504 108.756C93.9864 108.916 93.9544 109.112 93.9544 109.344C93.9544 109.656 94.0184 109.88 94.1464 110.016C94.2744 110.152 94.4384 110.22 94.6384 110.22Z" fill="black"/>
<path d="M88.28 15.344V15.984C87.64 16.0053 87.1493 16.0907 86.808 16.24C86.4667 16.368 86.232 16.624 86.104 17.008C85.9973 17.3707 85.944 17.9467 85.944 18.736V34.608C85.944 35.376 86.008 35.952 86.136 36.336C86.264 36.72 86.488 36.976 86.808 37.104C87.1493 37.232 87.64 37.3173 88.28 37.36V38C87.6613 37.9573 86.8613 37.936 85.88 37.936C84.92 37.9147 83.9387 37.904 82.936 37.904C81.848 37.904 80.824 37.9147 79.864 37.936C78.9253 37.936 78.1573 37.9573 77.56 38V37.36C78.2853 37.3173 78.8293 37.232 79.192 37.104C79.576 36.976 79.832 36.72 79.96 36.336C80.088 35.952 80.152 35.376 80.152 34.608V17.392L80.44 17.36L72.44 38H71.928L63.096 17.424V32.24C63.096 33.5413 63.16 34.544 63.288 35.248C63.416 35.9307 63.704 36.4213 64.152 36.72C64.6 37.0187 65.304 37.232 66.264 37.36V38C65.8587 37.9573 65.3147 37.936 64.632 37.936C63.9707 37.9147 63.3413 37.904 62.744 37.904C62.2747 37.904 61.784 37.9147 61.272 37.936C60.7813 37.936 60.3653 37.9573 60.024 38V37.36C60.7067 37.232 61.208 37.0293 61.528 36.752C61.8693 36.4533 62.0933 35.9947 62.2 35.376C62.3067 34.736 62.36 33.8613 62.36 32.752V18.736C62.36 17.9467 62.3067 17.3707 62.2 17.008C62.0933 16.624 61.8693 16.368 61.528 16.24C61.1867 16.0907 60.6853 16.0053 60.024 15.984V15.344C60.3653 15.3653 60.7813 15.3867 61.272 15.408C61.784 15.4293 62.2747 15.44 62.744 15.44C63.832 15.44 64.8773 15.4293 65.88 15.408C66.8827 15.3867 67.7893 15.3653 68.6 15.344L75.128 30.576L74.232 31.472L80.408 15.44C80.8133 15.44 81.2293 15.44 81.656 15.44C82.104 15.44 82.5307 15.44 82.936 15.44C83.9387 15.44 84.92 15.4293 85.88 15.408C86.8613 15.3867 87.6613 15.3653 88.28 15.344Z" fill="black"/>
<path d="M45.764 43.616C46.108 43.616 46.384 43.66 46.592 43.748C46.808 43.836 46.976 43.948 47.096 44.084C47.224 44.236 47.316 44.436 47.372 44.684C47.428 44.924 47.456 45.244 47.456 45.644V48.884C47.456 49.22 47.5 49.448 47.588 49.568C47.684 49.688 47.848 49.748 48.08 49.748V50C47.928 49.992 47.704 49.984 47.408 49.976C47.112 49.96 46.824 49.952 46.544 49.952C46.24 49.952 45.944 49.96 45.656 49.976C45.368 49.984 45.152 49.992 45.008 50V49.748C45.192 49.748 45.32 49.688 45.392 49.568C45.472 49.448 45.512 49.22 45.512 48.884V45.068C45.512 44.884 45.496 44.728 45.464 44.6C45.432 44.464 45.376 44.364 45.296 44.3C45.216 44.228 45.1 44.192 44.948 44.192C44.772 44.192 44.604 44.24 44.444 44.336C44.292 44.432 44.168 44.568 44.072 44.744C43.984 44.912 43.94 45.104 43.94 45.32V48.884C43.94 49.22 43.976 49.448 44.048 49.568C44.12 49.688 44.252 49.748 44.444 49.748V50C44.308 49.992 44.104 49.984 43.832 49.976C43.56 49.96 43.284 49.952 43.004 49.952C42.676 49.952 42.348 49.96 42.02 49.976C41.692 49.984 41.444 49.992 41.276 50V49.748C41.54 49.748 41.724 49.688 41.828 49.568C41.94 49.448 41.996 49.22 41.996 48.884V45.092C41.996 44.732 41.944 44.468 41.84 44.3C41.736 44.124 41.548 44.036 41.276 44.036V43.784C41.532 43.808 41.78 43.82 42.02 43.82C42.38 43.82 42.72 43.808 43.04 43.784C43.368 43.752 43.668 43.708 43.94 43.652V44.624C44.124 44.264 44.372 44.008 44.684 43.856C45.004 43.696 45.364 43.616 45.764 43.616ZM49.376 43.616C49.72 43.616 49.996 43.66 50.204 43.748C50.42 43.836 50.588 43.948 50.708 44.084C50.836 44.236 50.928 44.436 50.984 44.684C51.04 44.924 51.068 45.244 51.068 45.644V48.884C51.068 49.22 51.12 49.448 51.224 49.568C51.336 49.688 51.524 49.748 51.788 49.748V50C51.628 49.992 51.388 49.984 51.068 49.976C50.756 49.96 50.452 49.952 50.156 49.952C49.852 49.952 49.556 49.96 49.268 49.976C48.98 49.984 48.764 49.992 48.62 50V49.748C48.804 49.748 48.932 49.688 49.004 49.568C49.084 49.448 49.124 49.22 49.124 48.884V45.068C49.124 44.884 49.104 44.728 49.064 44.6C49.024 44.464 48.956 44.364 48.86 44.3C48.772 44.228 48.64 44.192 48.464 44.192C48.288 44.192 48.12 44.248 47.96 44.36C47.808 44.464 47.684 44.604 47.588 44.78C47.5 44.956 47.448 45.152 47.432 45.368L47.36 44.768C47.576 44.32 47.86 44.016 48.212 43.856C48.564 43.696 48.952 43.616 49.376 43.616ZM58.3419 43.652V48.692C58.3419 49.052 58.3939 49.32 58.4979 49.496C58.6099 49.664 58.7979 49.748 59.0619 49.748V50C58.8139 49.976 58.5659 49.964 58.3179 49.964C57.9499 49.964 57.6059 49.976 57.2859 50C56.9739 50.024 56.6779 50.068 56.3979 50.132V49.16C56.2059 49.52 55.9419 49.78 55.6059 49.94C55.2779 50.092 54.9019 50.168 54.4779 50.168C54.1259 50.168 53.8419 50.124 53.6259 50.036C53.4179 49.948 53.2579 49.832 53.1459 49.688C53.0179 49.544 52.9259 49.352 52.8699 49.112C52.8139 48.864 52.7859 48.54 52.7859 48.14V45.092C52.7859 44.732 52.7339 44.468 52.6299 44.3C52.5259 44.124 52.3379 44.036 52.0659 44.036V43.784C52.3219 43.808 52.5699 43.82 52.8099 43.82C53.1779 43.82 53.5219 43.808 53.8419 43.784C54.1619 43.752 54.4579 43.708 54.7299 43.652V48.716C54.7299 48.9 54.7499 49.056 54.7899 49.184C54.8299 49.312 54.8979 49.412 54.9939 49.484C55.0899 49.556 55.2179 49.592 55.3779 49.592C55.5619 49.592 55.7299 49.544 55.8819 49.448C56.0339 49.352 56.1579 49.22 56.2539 49.052C56.3499 48.876 56.3979 48.68 56.3979 48.464V45.092C56.3979 44.732 56.3459 44.468 56.2419 44.3C56.1379 44.124 55.9499 44.036 55.6779 44.036V43.784C55.9339 43.808 56.1819 43.82 56.4219 43.82C56.7899 43.82 57.1339 43.808 57.4539 43.784C57.7739 43.752 58.0699 43.708 58.3419 43.652ZM62.173 40.616V44.624C62.373 44.256 62.637 43.996 62.965 43.844C63.301 43.692 63.685 43.616 64.117 43.616C64.469 43.616 64.749 43.66 64.957 43.748C65.173 43.836 65.337 43.948 65.449 44.084C65.577 44.236 65.669 44.432 65.725 44.672C65.781 44.912 65.809 45.236 65.809 45.644V48.884C65.809 49.22 65.861 49.448 65.965 49.568C66.077 49.688 66.265 49.748 66.529 49.748V50C66.377 49.992 66.141 49.984 65.821 49.976C65.509 49.96 65.201 49.952 64.897 49.952C64.577 49.952 64.265 49.96 63.961 49.976C63.657 49.984 63.425 49.992 63.265 50V49.748C63.489 49.748 63.645 49.688 63.733 49.568C63.821 49.448 63.865 49.22 63.865 48.884V45.068C63.865 44.884 63.845 44.728 63.805 44.6C63.765 44.464 63.697 44.364 63.601 44.3C63.513 44.228 63.381 44.192 63.205 44.192C63.021 44.192 62.849 44.24 62.689 44.336C62.537 44.424 62.413 44.556 62.317 44.732C62.221 44.9 62.173 45.096 62.173 45.32V48.884C62.173 49.22 62.217 49.448 62.305 49.568C62.401 49.688 62.557 49.748 62.773 49.748V50C62.629 49.992 62.413 49.984 62.125 49.976C61.837 49.96 61.541 49.952 61.237 49.952C60.917 49.952 60.589 49.96 60.253 49.976C59.925 49.984 59.677 49.992 59.509 50V49.748C59.773 49.748 59.957 49.688 60.061 49.568C60.173 49.448 60.229 49.22 60.229 48.884V42.056C60.229 41.696 60.177 41.432 60.073 41.264C59.977 41.088 59.789 41 59.509 41V40.748C59.765 40.772 60.013 40.784 60.253 40.784C60.621 40.784 60.965 40.772 61.285 40.748C61.605 40.716 61.901 40.672 62.173 40.616ZM68.5838 50.084C68.2158 50.084 67.9118 50.016 67.6718 49.88C67.4318 49.736 67.2558 49.548 67.1438 49.316C67.0318 49.084 66.9758 48.836 66.9758 48.572C66.9758 48.236 67.0518 47.96 67.2038 47.744C67.3638 47.528 67.5678 47.356 67.8158 47.228C68.0638 47.092 68.3238 46.98 68.5958 46.892C68.8678 46.804 69.1278 46.72 69.3758 46.64C69.6238 46.552 69.8238 46.452 69.9758 46.34C70.1278 46.22 70.2038 46.068 70.2038 45.884V44.888C70.2038 44.712 70.1758 44.548 70.1198 44.396C70.0718 44.236 69.9798 44.108 69.8438 44.012C69.7158 43.908 69.5358 43.856 69.3038 43.856C69.1598 43.856 69.0198 43.876 68.8838 43.916C68.7478 43.956 68.6278 44.02 68.5238 44.108C68.7798 44.196 68.9678 44.328 69.0878 44.504C69.2158 44.68 69.2798 44.876 69.2798 45.092C69.2798 45.388 69.1758 45.624 68.9678 45.8C68.7678 45.968 68.5278 46.052 68.2478 46.052C67.9438 46.052 67.7078 45.956 67.5398 45.764C67.3798 45.572 67.2998 45.34 67.2998 45.068C67.2998 44.828 67.3598 44.628 67.4798 44.468C67.5998 44.3 67.7758 44.148 68.0078 44.012C68.2398 43.876 68.5198 43.776 68.8478 43.712C69.1758 43.648 69.5238 43.616 69.8918 43.616C70.2678 43.616 70.6118 43.656 70.9238 43.736C71.2438 43.808 71.5158 43.956 71.7398 44.18C71.9158 44.364 72.0278 44.588 72.0758 44.852C72.1238 45.116 72.1478 45.452 72.1478 45.86V49.1C72.1478 49.3 72.1638 49.44 72.1958 49.52C72.2358 49.592 72.2958 49.628 72.3758 49.628C72.4478 49.628 72.5158 49.608 72.5798 49.568C72.6438 49.528 72.7078 49.484 72.7718 49.436L72.9038 49.64C72.7278 49.784 72.5198 49.896 72.2798 49.976C72.0398 50.048 71.7798 50.084 71.4998 50.084C71.1798 50.084 70.9278 50.044 70.7438 49.964C70.5678 49.876 70.4398 49.76 70.3598 49.616C70.2878 49.472 70.2478 49.312 70.2398 49.136C70.0638 49.424 69.8438 49.656 69.5798 49.832C69.3158 50 68.9838 50.084 68.5838 50.084ZM69.5798 49.22C69.7078 49.22 69.8198 49.196 69.9158 49.148C70.0198 49.092 70.1158 49 70.2038 48.872V46.376C70.1398 46.488 70.0518 46.596 69.9398 46.7C69.8358 46.796 69.7238 46.896 69.6038 47C69.4838 47.096 69.3678 47.204 69.2558 47.324C69.1518 47.444 69.0638 47.588 68.9918 47.756C68.9278 47.916 68.8958 48.112 68.8958 48.344C68.8958 48.656 68.9598 48.88 69.0878 49.016C69.2158 49.152 69.3798 49.22 69.5798 49.22ZM77.7328 43.616C78.0768 43.616 78.3528 43.66 78.5608 43.748C78.7768 43.836 78.9448 43.948 79.0648 44.084C79.1928 44.236 79.2848 44.436 79.3408 44.684C79.3968 44.924 79.4248 45.244 79.4248 45.644V48.884C79.4248 49.22 79.4688 49.448 79.5568 49.568C79.6528 49.688 79.8168 49.748 80.0488 49.748V50C79.8968 49.992 79.6728 49.984 79.3768 49.976C79.0808 49.96 78.7928 49.952 78.5128 49.952C78.2088 49.952 77.9128 49.96 77.6248 49.976C77.3368 49.984 77.1208 49.992 76.9768 50V49.748C77.1608 49.748 77.2888 49.688 77.3608 49.568C77.4408 49.448 77.4808 49.22 77.4808 48.884V45.068C77.4808 44.884 77.4648 44.728 77.4328 44.6C77.4008 44.464 77.3448 44.364 77.2648 44.3C77.1848 44.228 77.0688 44.192 76.9168 44.192C76.7408 44.192 76.5728 44.24 76.4128 44.336C76.2608 44.432 76.1368 44.568 76.0408 44.744C75.9528 44.912 75.9088 45.104 75.9088 45.32V48.884C75.9088 49.22 75.9448 49.448 76.0168 49.568C76.0888 49.688 76.2208 49.748 76.4128 49.748V50C76.2768 49.992 76.0728 49.984 75.8008 49.976C75.5288 49.96 75.2528 49.952 74.9728 49.952C74.6448 49.952 74.3168 49.96 73.9888 49.976C73.6608 49.984 73.4128 49.992 73.2448 50V49.748C73.5088 49.748 73.6928 49.688 73.7968 49.568C73.9088 49.448 73.9648 49.22 73.9648 48.884V45.092C73.9648 44.732 73.9128 44.468 73.8088 44.3C73.7048 44.124 73.5168 44.036 73.2448 44.036V43.784C73.5008 43.808 73.7488 43.82 73.9888 43.82C74.3488 43.82 74.6888 43.808 75.0088 43.784C75.3368 43.752 75.6368 43.708 75.9088 43.652V44.624C76.0928 44.264 76.3408 44.008 76.6528 43.856C76.9728 43.696 77.3328 43.616 77.7328 43.616ZM81.3448 43.616C81.6888 43.616 81.9648 43.66 82.1728 43.748C82.3888 43.836 82.5568 43.948 82.6768 44.084C82.8048 44.236 82.8968 44.436 82.9528 44.684C83.0088 44.924 83.0368 45.244 83.0368 45.644V48.884C83.0368 49.22 83.0888 49.448 83.1928 49.568C83.3048 49.688 83.4928 49.748 83.7568 49.748V50C83.5968 49.992 83.3568 49.984 83.0368 49.976C82.7248 49.96 82.4208 49.952 82.1248 49.952C81.8208 49.952 81.5248 49.96 81.2368 49.976C80.9488 49.984 80.7328 49.992 80.5888 50V49.748C80.7728 49.748 80.9008 49.688 80.9728 49.568C81.0528 49.448 81.0928 49.22 81.0928 48.884V45.068C81.0928 44.884 81.0728 44.728 81.0328 44.6C80.9928 44.464 80.9248 44.364 80.8288 44.3C80.7408 44.228 80.6088 44.192 80.4328 44.192C80.2568 44.192 80.0888 44.248 79.9288 44.36C79.7768 44.464 79.6528 44.604 79.5568 44.78C79.4688 44.956 79.4168 45.152 79.4008 45.368L79.3288 44.768C79.5448 44.32 79.8288 44.016 80.1808 43.856C80.5328 43.696 80.9208 43.616 81.3448 43.616ZM88.6546 43.616C88.9986 43.616 89.2746 43.66 89.4826 43.748C89.6986 43.836 89.8666 43.948 89.9866 44.084C90.1146 44.236 90.2066 44.436 90.2626 44.684C90.3186 44.924 90.3466 45.244 90.3466 45.644V48.884C90.3466 49.22 90.3906 49.448 90.4786 49.568C90.5746 49.688 90.7386 49.748 90.9706 49.748V50C90.8186 49.992 90.5946 49.984 90.2986 49.976C90.0026 49.96 89.7146 49.952 89.4346 49.952C89.1306 49.952 88.8346 49.96 88.5466 49.976C88.2586 49.984 88.0426 49.992 87.8986 50V49.748C88.0826 49.748 88.2106 49.688 88.2826 49.568C88.3626 49.448 88.4026 49.22 88.4026 48.884V45.068C88.4026 44.884 88.3866 44.728 88.3546 44.6C88.3226 44.464 88.2666 44.364 88.1866 44.3C88.1066 44.228 87.9906 44.192 87.8386 44.192C87.6626 44.192 87.4946 44.24 87.3346 44.336C87.1826 44.432 87.0586 44.568 86.9626 44.744C86.8746 44.912 86.8306 45.104 86.8306 45.32V48.884C86.8306 49.22 86.8666 49.448 86.9386 49.568C87.0106 49.688 87.1426 49.748 87.3346 49.748V50C87.1986 49.992 86.9946 49.984 86.7226 49.976C86.4506 49.96 86.1746 49.952 85.8946 49.952C85.5666 49.952 85.2386 49.96 84.9106 49.976C84.5826 49.984 84.3346 49.992 84.1666 50V49.748C84.4306 49.748 84.6146 49.688 84.7186 49.568C84.8306 49.448 84.8866 49.22 84.8866 48.884V45.092C84.8866 44.732 84.8346 44.468 84.7306 44.3C84.6266 44.124 84.4386 44.036 84.1666 44.036V43.784C84.4226 43.808 84.6706 43.82 84.9106 43.82C85.2706 43.82 85.6106 43.808 85.9306 43.784C86.2586 43.752 86.5586 43.708 86.8306 43.652V44.624C87.0146 44.264 87.2626 44.008 87.5746 43.856C87.8946 43.696 88.2546 43.616 88.6546 43.616ZM92.2666 43.616C92.6106 43.616 92.8866 43.66 93.0946 43.748C93.3106 43.836 93.4786 43.948 93.5986 44.084C93.7266 44.236 93.8186 44.436 93.8746 44.684C93.9306 44.924 93.9586 45.244 93.9586 45.644V48.884C93.9586 49.22 94.0106 49.448 94.1146 49.568C94.2266 49.688 94.4146 49.748 94.6786 49.748V50C94.5186 49.992 94.2786 49.984 93.9586 49.976C93.6466 49.96 93.3426 49.952 93.0466 49.952C92.7426 49.952 92.4466 49.96 92.1586 49.976C91.8706 49.984 91.6546 49.992 91.5106 50V49.748C91.6946 49.748 91.8226 49.688 91.8946 49.568C91.9746 49.448 92.0146 49.22 92.0146 48.884V45.068C92.0146 44.884 91.9946 44.728 91.9546 44.6C91.9146 44.464 91.8466 44.364 91.7506 44.3C91.6626 44.228 91.5306 44.192 91.3546 44.192C91.1786 44.192 91.0106 44.248 90.8506 44.36C90.6986 44.464 90.5746 44.604 90.4786 44.78C90.3906 44.956 90.3386 45.152 90.3226 45.368L90.2506 44.768C90.4666 44.32 90.7506 44.016 91.1026 43.856C91.4546 43.696 91.8426 43.616 92.2666 43.616ZM96.7205 50.084C96.3525 50.084 96.0485 50.016 95.8085 49.88C95.5685 49.736 95.3925 49.548 95.2805 49.316C95.1685 49.084 95.1125 48.836 95.1125 48.572C95.1125 48.236 95.1885 47.96 95.3405 47.744C95.5005 47.528 95.7045 47.356 95.9525 47.228C96.2005 47.092 96.4605 46.98 96.7325 46.892C97.0045 46.804 97.2645 46.72 97.5125 46.64C97.7605 46.552 97.9605 46.452 98.1125 46.34C98.2645 46.22 98.3405 46.068 98.3405 45.884V44.888C98.3405 44.712 98.3125 44.548 98.2565 44.396C98.2085 44.236 98.1165 44.108 97.9805 44.012C97.8525 43.908 97.6725 43.856 97.4405 43.856C97.2965 43.856 97.1565 43.876 97.0205 43.916C96.8845 43.956 96.7645 44.02 96.6605 44.108C96.9165 44.196 97.1045 44.328 97.2245 44.504C97.3525 44.68 97.4165 44.876 97.4165 45.092C97.4165 45.388 97.3125 45.624 97.1045 45.8C96.9045 45.968 96.6645 46.052 96.3845 46.052C96.0805 46.052 95.8445 45.956 95.6765 45.764C95.5165 45.572 95.4365 45.34 95.4365 45.068C95.4365 44.828 95.4965 44.628 95.6165 44.468C95.7365 44.3 95.9125 44.148 96.1445 44.012C96.3765 43.876 96.6565 43.776 96.9845 43.712C97.3125 43.648 97.6605 43.616 98.0285 43.616C98.4045 43.616 98.7485 43.656 99.0605 43.736C99.3805 43.808 99.6525 43.956 99.8765 44.18C100.053 44.364 100.165 44.588 100.213 44.852C100.261 45.116 100.285 45.452 100.285 45.86V49.1C100.285 49.3 100.301 49.44 100.333 49.52C100.373 49.592 100.433 49.628 100.513 49.628C100.585 49.628 100.653 49.608 100.717 49.568C100.781 49.528 100.845 49.484 100.909 49.436L101.041 49.64C100.865 49.784 100.657 49.896 100.417 49.976C100.177 50.048 99.9165 50.084 99.6365 50.084C99.3165 50.084 99.0645 50.044 98.8805 49.964C98.7045 49.876 98.5765 49.76 98.4965 49.616C98.4245 49.472 98.3845 49.312 98.3765 49.136C98.2005 49.424 97.9805 49.656 97.7165 49.832C97.4525 50 97.1205 50.084 96.7205 50.084ZM97.7165 49.22C97.8445 49.22 97.9565 49.196 98.0525 49.148C98.1565 49.092 98.2525 49 98.3405 48.872V46.376C98.2765 46.488 98.1885 46.596 98.0765 46.7C97.9725 46.796 97.8605 46.896 97.7405 47C97.6205 47.096 97.5045 47.204 97.3925 47.324C97.2885 47.444 97.2005 47.588 97.1285 47.756C97.0645 47.916 97.0325 48.112 97.0325 48.344C97.0325 48.656 97.0965 48.88 97.2245 49.016C97.3525 49.152 97.5165 49.22 97.7165 49.22ZM107.417 40.616V48.68C107.417 49.04 107.469 49.308 107.573 49.484C107.685 49.652 107.873 49.736 108.137 49.736V49.988C107.889 49.964 107.641 49.952 107.393 49.952C107.033 49.952 106.693 49.964 106.373 49.988C106.053 50.012 105.753 50.056 105.473 50.12V42.056C105.473 41.696 105.421 41.432 105.317 41.264C105.221 41.088 105.033 41 104.753 41V40.748C105.009 40.772 105.257 40.784 105.497 40.784C105.865 40.784 106.209 40.772 106.529 40.748C106.849 40.716 107.145 40.672 107.417 40.616ZM104.189 43.616C104.541 43.616 104.845 43.668 105.101 43.772C105.357 43.868 105.569 44.032 105.737 44.264L105.593 44.384C105.489 44.248 105.361 44.148 105.209 44.084C105.065 44.02 104.913 43.988 104.753 43.988C104.369 43.988 104.069 44.228 103.853 44.708C103.645 45.18 103.541 45.908 103.541 46.892C103.541 47.58 103.581 48.124 103.661 48.524C103.749 48.916 103.865 49.192 104.009 49.352C104.161 49.512 104.329 49.592 104.513 49.592C104.761 49.592 104.981 49.5 105.173 49.316C105.373 49.124 105.477 48.872 105.485 48.56L105.521 49.064C105.377 49.432 105.177 49.708 104.921 49.892C104.673 50.076 104.353 50.168 103.961 50.168C103.497 50.168 103.077 50.052 102.701 49.82C102.333 49.588 102.041 49.232 101.825 48.752C101.617 48.264 101.513 47.632 101.513 46.856C101.513 46.128 101.625 45.528 101.849 45.056C102.081 44.576 102.397 44.216 102.797 43.976C103.205 43.736 103.669 43.616 104.189 43.616Z" fill="black"/>
<line x1="25" y1="54.5" x2="125" y2="54.5" stroke="black"/>
<line x1="25" y1="99.5" x2="125" y2="99.5" stroke="black"/>
</svg>
